<svg width="584" height="358" viewBox="0 0 584 358" fill="none" xmlns="http://www.w3.org/2000/svg">
<path d="M113.032 358H0L191.078 21.5338C201.596 5.66996 208.629 0.80895 223.373 0H374.083C380.723 4.22779 384.308 8.34507 390.23 21.5338C398.048 12.626 403.452 7.82112 417.143 0H584L549.014 99.594H470.968C450.648 104.574 442.652 112.275 430.599 129.203L320.258 358H212.608L341.788 99.594H261.051C251.47 102.161 247.229 104.967 242.212 113.053L113.032 358Z" fill="white"/>
<path d="M479.041 172.271L382.157 358H489.806L530.175 172.271C529.019 151.802 501.09 140.549 479.041 172.271Z" fill="white"/>
</svg>
